<svg xmlns="http://www.w3.org/2000/svg" width="23.993" height="27.988" viewBox="0 0 23.993 27.988"><defs><style>.a{fill:#f5aa4b;}</style></defs><path class="a" d="M1496.829,5204.259c3.267,0,5.355,3.139,5.355,3.139a6.48,6.48,0,0,0-3.186,5.444,6.049,6.049,0,0,0,4,5.713s-3.16,7.443-6.708,7.443c-2,0-2.129-1.14-4.78-1.14-2.3,0-3.079,1.14-4.833,1.14-3.347,0-7.672-7.254-7.672-13.156,0-6.128,4.378-8.583,7.123-8.583,2.41,0,3.414,1.408,5.356,1.408C1493.12,5205.667,1494.406,5204.259,1496.829,5204.259Zm-.562-6.249c.482,3-2.263,6.719-5.543,6.6C1490.242,5200.787,1493.776,5198.212,1496.267,5198.011Z" transform="translate(-1479.009 -5198.011)"/></svg>