<svg xmlns="http://www.w3.org/2000/svg" xmlns:xlink="http://www.w3.org/1999/xlink" width="60.596" height="75.018" viewBox="0 0 60.596 75.018"><defs><style>.a{fill:#ffd7a3;}.b{fill:#fdc88e;}.c{fill:#0071b7;}.d{fill:#ffe1b2;}.e{fill:#623f33;}.f{fill:#e4b07b;}.g{fill:#f5aa4b;}.h{filter:url(#a);}</style><filter id="a" x="0" y="36.884" width="60.596" height="38.134" filterUnits="userSpaceOnUse"><feOffset dy="3" input="SourceAlpha"/><feGaussianBlur stdDeviation="3" result="b"/><feFlood flood-opacity="0.161"/><feComposite operator="in" in2="b"/><feComposite in="SourceGraphic"/></filter></defs><g transform="translate(-66.184)"><path class="a" d="M117.755,59.352l-1.374-11a4.348,4.348,0,0,0-2.939-3.584l-5.3-1.769a2.172,2.172,0,0,0-2.09.389l-1.57-.5a2.172,2.172,0,0,1-1.485-2.062V37.3l4.68-1.951a6.532,6.532,0,0,0,4.013-6.018V28.25a3.26,3.26,0,0,0,2.471-5.4c.923-3.357,3.516-13.977.789-18.518L116.04,0A83.342,83.342,0,0,0,98.655,2.172L100.83,0S85.549,0,82.371,5.433h0s-5.438-.037-5.438,6.52a73.143,73.143,0,0,0,1.914,10.868,3.26,3.26,0,0,0,2.431,5.43v1.088a6.532,6.532,0,0,0,4,6.018l4.68,1.951v3.5a2.172,2.172,0,0,1-1.485,2.062l-1.562.52A2.173,2.173,0,0,0,84.825,43l-5.3,1.769a4.345,4.345,0,0,0-2.939,3.584l-1.374,11a3.26,3.26,0,0,0,3.235,3.663h36.065a3.26,3.26,0,0,0,3.246-3.663Z"/><g transform="translate(88.877 37.304)"><path class="b" d="M190.109,274.667H177.072v3.5a2.153,2.153,0,0,1-1.088,1.854,14.79,14.79,0,0,0,14.125-5.356Z" transform="translate(-175.984 -274.667)"/></g><g transform="translate(76.924)"><path class="c" d="M90.172,23.905A86.9,86.9,0,0,1,88,11.953c0-6.566,5.433-6.532,5.433-6.532h0C96.624,0,111.905,0,111.905,0l-2.172,2.172A83.342,83.342,0,0,1,127.115,0l-1.088,4.345c3.26,5.433-1.088,19.558-1.088,19.558Z" transform="translate(-88)"/></g><g transform="translate(76.924)"><path class="c" d="M111.905,0S96.624,0,93.447,5.433h0S88,5.4,88,11.953a86.9,86.9,0,0,0,2.172,11.953S112.763,13.807,127.115,0A83.342,83.342,0,0,0,109.73,2.172Z" transform="translate(-88)"/></g><path class="d" d="M129.687,111.6v-2.172A5.432,5.432,0,0,0,124.254,104H104.7a5.433,5.433,0,0,0-5.433,5.433V111.6a3.266,3.266,0,0,0,0,6.532v1.088a6.532,6.532,0,0,0,4.013,6.018l7.02,2.925a10.865,10.865,0,0,0,4.18.835h0a10.865,10.865,0,0,0,4.18-.835l7.02-2.925a6.532,6.532,0,0,0,4.013-6.018v-1.088a3.266,3.266,0,1,0,0-6.532Z" transform="translate(-17.992 -89.875)"/><g transform="translate(87.79 22.815)"><path class="e" d="M169.088,171.262h0A1.09,1.09,0,0,1,168,170.174v-1.088A1.091,1.091,0,0,1,169.088,168h0a1.09,1.09,0,0,1,1.088,1.088v1.088a1.09,1.09,0,0,1-1.088,1.088Z" transform="translate(-168 -167.999)"/></g><g transform="translate(103.002 22.815)"><path class="e" d="M281.088,171.262h0A1.09,1.09,0,0,1,280,170.174v-1.088A1.091,1.091,0,0,1,281.088,168h0a1.09,1.09,0,0,1,1.088,1.088v1.088a1.091,1.091,0,0,1-1.088,1.088Z" transform="translate(-280 -167.999)"/></g><g transform="translate(91.006 30.397)"><g transform="translate(0 0)"><path class="f" d="M197.46,227.306A9.051,9.051,0,0,1,192.5,226a1.088,1.088,0,1,1,1.221-1.8,7.98,7.98,0,0,0,7.469,0,1.088,1.088,0,0,1,1.221,1.8,9.05,9.05,0,0,1-4.953,1.3Z" transform="translate(-191.984 -223.989)"/></g></g><g transform="translate(75.184 42.884)"><g class="h" transform="matrix(1, 0, 0, 1, -9, -42.88)"><path class="g" d="M117.755,332.239l-1.374-11a4.345,4.345,0,0,0-2.939-3.584l-5.3-1.766a2.138,2.138,0,0,0-2.485.852,10.854,10.854,0,0,1-18.345,0,2.138,2.138,0,0,0-2.485-.852l-5.3,1.766a4.345,4.345,0,0,0-2.939,3.584l-1.374,11a3.26,3.26,0,0,0,3.235,3.663h36.065a3.26,3.26,0,0,0,3.246-3.663Z" transform="translate(-66.18 -272.88)"/></g></g><g transform="translate(75.196 46.201)"><path class="g" d="M77.494,340.168a4.336,4.336,0,0,0-.906,2.153l-1.374,11a3.26,3.26,0,0,0,3.235,3.663h6.086v-7.074a4.348,4.348,0,0,0-1.062-2.84Z" transform="translate(-75.188 -340.168)"/></g><g transform="translate(108.435 46.201)"><path class="g" d="M327.04,340.168a4.337,4.337,0,0,1,.906,2.153l1.374,11a3.26,3.26,0,0,1-3.235,3.663H320v-7.074a4.347,4.347,0,0,1,1.062-2.84Z" transform="translate(-320 -340.168)"/></g><path class="a" d="M104.966,122.977a5.1,5.1,0,0,1-1.357-3.482V107.182A113.274,113.274,0,0,0,124.254,104H104.7a5.114,5.114,0,0,0-1.088.119h0a5.435,5.435,0,0,0-4.345,5.325v2.172a3.266,3.266,0,0,0,0,6.532v1.088a6.532,6.532,0,0,0,4.013,6.018l7.02,2.925a10.877,10.877,0,0,0,1.051.372,45.354,45.354,0,0,1-6.381-5.572Z" transform="translate(-17.992 -89.877)"/></g></svg>