<svg xmlns="http://www.w3.org/2000/svg" xmlns:xlink="http://www.w3.org/1999/xlink" width="72.203" height="72.209" viewBox="0 0 72.203 72.209"><defs><style>.a{fill:#fcf2d0;}.b{fill:#fae0bd;}.c{fill:#ffd3bd;}.d{fill:#ffbe9d;}.e{fill:#0071b7;}.f{fill:#eda1ab;}.g{fill:#e8899e;}.h{fill:#4e5660;}.i{fill:#f5aa4b;}.j{fill:#fff;}.k{filter:url(#e);}.l{filter:url(#c);}.m{filter:url(#a);}</style><filter id="a" x="0" y="15.105" width="65.512" height="49.463" filterUnits="userSpaceOnUse"><feOffset dy="3" input="SourceAlpha"/><feGaussianBlur stdDeviation="3" result="b"/><feFlood flood-opacity="0.161"/><feComposite operator="in" in2="b"/><feComposite in="SourceGraphic"/></filter><filter id="c" x="10.013" y="0" width="39.566" height="55.655" filterUnits="userSpaceOnUse"><feOffset dy="3" input="SourceAlpha"/><feGaussianBlur stdDeviation="3" result="d"/><feFlood flood-opacity="0.161"/><feComposite operator="in" in2="d"/><feComposite in="SourceGraphic"/></filter><filter id="e" x="23.493" y="23.499" width="48.71" height="48.71" filterUnits="userSpaceOnUse"><feOffset dy="3" input="SourceAlpha"/><feGaussianBlur stdDeviation="3" result="f"/><feFlood flood-opacity="0.161"/><feComposite operator="in" in2="f"/><feComposite in="SourceGraphic"/></filter></defs><g transform="translate(9 6.001)"><g class="m" transform="matrix(1, 0, 0, 1, -9, -6)"><path class="a" d="M39.873,187.033H7.638A7.638,7.638,0,0,1,0,179.391V158.351a2.781,2.781,0,0,1,2.781-2.781h41.95a2.781,2.781,0,0,1,2.781,2.781v21.039a7.638,7.638,0,0,1-7.638,7.638Z" transform="translate(9 -134.47)"/></g><path class="b" d="M2.781,155.572A2.781,2.781,0,0,0,0,158.354v21.039a7.638,7.638,0,0,0,7.638,7.638H16.3c-5.923-4.43-9.188-16.136-7.578-31.463Z" transform="translate(0 -140.468)"/><path class="c" d="M47.519,160.584H0v-2.233a2.782,2.782,0,0,1,2.781-2.781h41.95a2.782,2.782,0,0,1,2.781,2.781v2.233Z" transform="translate(0 -140.466)"/><path class="d" d="M0,158.351v2.233H8.361q.092-2.433.363-5.014H2.784A2.781,2.781,0,0,0,0,158.351Z" transform="translate(0 -140.466)"/><path class="e" d="M34.988,255.576a11.6,11.6,0,0,1-11.232,11.919,11.6,11.6,0,0,1-11.232-11.919c0-3.218-8.734-3.257-12.523-1.872v11.638a7.638,7.638,0,0,0,7.638,7.63H39.873a7.638,7.638,0,0,0,7.638-7.638V251.768C42.33,249.212,34.988,251.846,34.988,255.576Z" transform="translate(0 -226.413)"/><path class="e" d="M8.435,272.322A20.055,20.055,0,0,0,0,273.029v11.638A7.638,7.638,0,0,0,7.638,292.3H16.3C11.962,289.062,9.051,281.924,8.435,272.322Z" transform="translate(0 -245.738)"/><g transform="translate(4.3 31.702)"><path class="f" d="M44.993,329.667a.729.729,0,0,1-.514-1.243l.954-.954a.729.729,0,1,1,1.024,1.024l-.954.954a.725.725,0,0,1-.51.219Z" transform="translate(-44.266 -327.192)"/><path class="f" d="M74.845,394.712a.727.727,0,0,1-.514-.2l-.615-.615a.729.729,0,0,1,1.024-1.024l.614.625a.729.729,0,0,1-.514,1.243Z" transform="translate(-70.653 -386.206)"/><path class="g" d="M139.217,426.761a.727.727,0,0,1-.514-1.243l1.04-1.041a.729.729,0,0,1,1.024,1.024l-1.04,1.04a.727.727,0,0,1-.514.2Z" transform="translate(-129.344 -414.772)"/></g><g class="l" transform="matrix(1, 0, 0, 1, -9, -6)"><path class="h" d="M121.982,22.752a4.576,4.576,0,0,1-1.251-2.1A37.919,37.919,0,0,0,106.287.316,2.067,2.067,0,0,0,103.634.7a2.1,2.1,0,0,0,.086,2.816,31.526,31.526,0,0,1,8.142,17.551,3.2,3.2,0,0,1-.739,2.366,8.879,8.879,0,0,0-2.048,5.735,7.826,7.826,0,1,0,15.6,0,8.791,8.791,0,0,0-2.689-6.419Z" transform="translate(-84.12 6)"/></g><g class="k" transform="matrix(1, 0, 0, 1, -9, -6)"><circle class="i" cx="10.858" cy="10.858" r="10.858" transform="translate(32.49 44.85) rotate(-45)"/></g><path class="j" d="M342.49,337.635v-3.15a.569.569,0,0,0-.569-.569h-3.15a.57.57,0,0,0-.569.569v3.15a.569.569,0,0,1-.569.569h-3.15a.569.569,0,0,0-.569.569v3.15a.569.569,0,0,0,.569.569h3.15a.569.569,0,0,1,.569.569v3.15a.57.57,0,0,0,.57.569h3.15a.569.569,0,0,0,.569-.569V343.06a.569.569,0,0,1,.569-.569h3.15a.569.569,0,0,0,.569-.569v-3.15a.569.569,0,0,0-.569-.569h-3.146a.569.569,0,0,1-.574-.567Z" transform="translate(-301.497 -301.495)"/></g></svg>