<svg xmlns="http://www.w3.org/2000/svg" xmlns:xlink="http://www.w3.org/1999/xlink" width="22.365" height="22.365" viewBox="0 0 22.365 22.365"><defs><style>.a{fill:#f5aa4b;}.b{clip-path:url(#a);}</style><clipPath id="a"><rect class="a" width="22.365" height="22.365" transform="translate(154.987 267.844)"/></clipPath></defs><g transform="translate(-154.987 -267.844)"><g class="b"><path class="a" d="M166.6,277.612l3.423-3.423L159.18,268.2a2.845,2.845,0,0,0-2.773.006Zm0,0"/></g><path class="a" d="M155.385,269.171a2.64,2.64,0,0,0-.387,1.366v16.98a2.619,2.619,0,0,0,.366,1.332L165.607,278.6Zm0,0"/><g class="b"><path class="a" d="M174.562,276.69l-3.271-1.8-3.669,3.669,4.5,4.15,2.441-1.348a2.644,2.644,0,0,0,0-4.669Zm0,0"/><path class="a" d="M166.639,279.546l-10.277,10.276a2.806,2.806,0,0,0,2.818.027l11.652-6.431Zm0,0"/></g></g></svg>