<svg xmlns="http://www.w3.org/2000/svg" xmlns:xlink="http://www.w3.org/1999/xlink" width="62.596" height="80.993" viewBox="0 0 62.596 80.993"><defs><style>.a{fill:#84b5cb;}.b{fill:#d75e72;}.c{fill:#cc4b4c;}.d{fill:#802d40;}.e{filter:url(#a);}</style><filter id="a" x="0" y="0" width="62.596" height="80.993" filterUnits="userSpaceOnUse"><feOffset dy="3" input="SourceAlpha"/><feGaussianBlur stdDeviation="3" result="b"/><feFlood flood-opacity="0.161"/><feComposite operator="in" in2="b"/><feComposite in="SourceGraphic"/></filter></defs><g transform="translate(-66.013 5.92)"><path class="a" d="M117.961,386.455v5.651a3.807,3.807,0,0,1-7.613,0V379.586c.1.164.208.316.316.469s.173.261.272.381a.461.461,0,0,1,.056.076c.1.132.2.26.293.392a4.9,4.9,0,0,0,.369.457,1.791,1.791,0,0,0,.228.261,1,1,0,0,0,.1.108c.056.076.12.141.184.217h0l.088.088c.021.032.056.056.076.088s.021,0,.021.02a2.211,2.211,0,0,0,.152.173q.31.343.653.653a.469.469,0,0,0,.108.1l.088.088s0,.02.02,0c.056.064.12.12.173.173a5.231,5.231,0,0,0,.521.457.554.554,0,0,1,.088.076.109.109,0,0,0,.056.044c.293.228.565.457.861.685h0q.442.328.878.621h0c.293.2.586.381.878.565a.223.223,0,0,0,.064.044c.164.1.328.2.5.293h0a1.4,1.4,0,0,0,.217.12.23.23,0,0,0,.056.032,2.208,2.208,0,0,1,.217.12h0Z" transform="translate(-30.905 -332.77)"/><g class="e" transform="matrix(1, 0, 0, 1, 66.01, -5.92)"><path class="b" d="M111.912,28.471a4.029,4.029,0,0,0,.185-1.306c0-3.265-3.265-7.613-6.533-7.613l.5-6.533a10.194,10.194,0,0,0,.586-3.265,6.787,6.787,0,0,0-5.441-6.094V2.126a2.179,2.179,0,0,0-4.354,0V3.268a9.434,9.434,0,0,0-2.776.641l-.952-2.372A1.807,1.807,0,0,0,89.71,2.709l1.034,3.613c-3.1,3.613-3.657,9.625-3.69,14v2.343c-.7-.261-1.426-.586-2.179-.946a1.274,1.274,0,0,0-.293-.108h-.02a6.029,6.029,0,0,0-5.139,2.155v-.009a17.988,17.988,0,0,0-4.354,13.206c0,13.066,2.179,10.887,2.179,10.887a3,3,0,0,0,.457-.032,19.45,19.45,0,0,0,1.719,3.321,14.063,14.063,0,0,0,.878,1.2.472.472,0,0,0,.056.076.04.04,0,0,0,.021.032c.021.012,0,.021.032.032a4.515,4.515,0,0,0,.293.36.334.334,0,0,1,.056.076l.228.261a.984.984,0,0,0,.1.108c.056.076.12.141.184.217h0c.032.044.076.076.108.12a.132.132,0,0,1,.056.056h0v.02a1.759,1.759,0,0,1,.141.141h0l.152.152c.164.173.337.348.5.512.064.064.132.12.2.184s.132.12.2.184a5.244,5.244,0,0,0,.521.457.555.555,0,0,1,.088.076.108.108,0,0,0,.056.044c.293.228.565.457.861.685h0q.442.328.878.621h0c.293.2.586.381.878.565a.228.228,0,0,0,.064.044c.164.1.328.2.5.293h0a1.408,1.408,0,0,0,.217.12.237.237,0,0,0,.056.032,2.188,2.188,0,0,1,.217.12h0V59.2a3.807,3.807,0,0,0,7.359,1.35,13.893,13.893,0,0,0,2.439.293,35.107,35.107,0,0,1,6.685.621c.761.152,1.464.293,2.135.469A27.663,27.663,0,0,0,112,63.021c3.265,0,7.613-2.179,7.613-11.976a46.942,46.942,0,0,0-7.7-22.573Zm-21.458,4.9Zm16.167-3.028a1.544,1.544,0,0,1-.217-.044l.217.032Z" transform="translate(-66.01 5.97)"/></g><path class="c" d="M191.716,9.745a10.194,10.194,0,0,1-.586,3.265h-1.242a4.943,4.943,0,0,0-.545.02c-.184.02-.337.02-.512.044s-.293.02-.457.044a10.882,10.882,0,0,0-2.155.457,4.731,4.731,0,0,0-.512.173.81.81,0,0,0-.12.044,5.552,5.552,0,0,0-.586.261c-.056.02-.12.056-.184.088a4.044,4.044,0,0,0-.425.228,4.467,4.467,0,0,0-.425.261,3.65,3.65,0,0,0-.5.337,10.614,10.614,0,0,0-1.526,1.285c-.164.164-.337.337-.489.512a.507.507,0,0,0-.076.076c-.261.293-.512.565-.741.849-.173.2-.328.392-.48.586s-.272.348-.392.521-.261.348-.381.521c-.24.348-.457.7-.665,1.034a5.557,5.557,0,0,0-.293.5.04.04,0,0,1-.021.032,1.2,1.2,0,0,1-.088.164q-.325.654-.586,1.242a3.874,3.874,0,0,0-.152.413,5.086,5.086,0,0,0-.217.817,2.077,2.077,0,0,0-.056.348l.272,2.179c-.1-.044-2.243-2.255-2.343-2.3L175.1,23.7l-.261-.1c-.753-.261-1.59-.545-2.483-.878a.082.082,0,0,1-.044-.021h-.044l-.12-.056V20.31c.032-4.378.586-10.386,3.69-14L174.774,2.7a1.807,1.807,0,0,1,3.417-1.171l.946,2.375a9.432,9.432,0,0,1,2.776-.641V2.126a2.179,2.179,0,0,1,4.354,0V3.66a6.788,6.788,0,0,1,5.449,6.085Z" transform="translate(-85.061 0.053)"/><g transform="translate(76.381 0)"><path class="a" d="M88.648,23.81V8.709a12.512,12.512,0,0,0-2.82-6.9A1.122,1.122,0,0,1,86.706,0h4.266a4.014,4.014,0,0,1,3.473,2.015,13.321,13.321,0,0,1,1.807,6.7V23.954Z" transform="translate(-85.594 -0.001)"/><path class="a" d="M234.978,109.433a2.706,2.706,0,0,1-3.037,2.656,8.893,8.893,0,0,0-4.685.337l.021.108.032.173.032.173.108.729a10.143,10.143,0,0,1,.076,1.209V115a.619.619,0,0,1,0,.141v.3a1.625,1.625,0,0,1-.021.228,3.018,3.018,0,0,1-.044.445,1.208,1.208,0,0,1-.032.217h0c-.044.217-.088.425-.141.641l-.032.064a4.956,4.956,0,0,1-.2.565.959.959,0,0,1-.088.184c-.044.076-.076.152-.12.228s-.076.141-.12.208a.583.583,0,0,1-.108.173l-.064.1c-.02.021-.032.032-.032.044l-.032.032a3.3,3.3,0,0,1-.293.36,2.439,2.439,0,0,0-.228.261.205.205,0,0,0-.064.076l-.032.032a2.055,2.055,0,0,0-.217.316.081.081,0,0,1-.021.044,29.946,29.946,0,0,1-4.878.36,4.742,4.742,0,0,1-.665-.032,13.3,13.3,0,0,1-3.461-.805c-.152-.056-.293-.108-.436-.173s-.293-.132-.445-.2a1.558,1.558,0,0,1-.2-.088,8.855,8.855,0,0,1-.805-.457h-.021a3.289,3.289,0,0,0-.633-.586h0a1.672,1.672,0,0,1-.12-.878h0a1.893,1.893,0,0,1,.044-.348,5.063,5.063,0,0,1,.217-.817,3.9,3.9,0,0,1,.152-.413q.246-.589.586-1.242a1.187,1.187,0,0,0,.088-.164s.021-.021.021-.032c.088-.164.184-.337.293-.5.208-.337.425-.685.665-1.034.12-.173.252-.348.381-.521s.252-.348.392-.521.293-.392.48-.586c.228-.293.48-.565.741-.849a.5.5,0,0,1,.076-.076c.152-.173.328-.348.489-.512a10.6,10.6,0,0,1,1.526-1.285,5,5,0,0,1,.5-.337,4.468,4.468,0,0,1,.425-.261,4.034,4.034,0,0,1,.425-.228c.064-.032.132-.064.185-.088.208-.1.392-.184.586-.261a.809.809,0,0,1,.12-.044,4.71,4.71,0,0,1,.513-.173,10.892,10.892,0,0,1,2.155-.457c.152-.021.293-.032.457-.044s.337-.032.512-.044.369-.021.545-.021h1.827a15.771,15.771,0,0,1,4.834,1.013,2.7,2.7,0,0,1,1.766,2.468Z" transform="translate(-198.074 -92.83)"/></g><path class="c" d="M179.5,473.4a3.807,3.807,0,0,1-7.359-1.35v-1.274c.328.184.665.36,1,.512h0a19.46,19.46,0,0,0,2,.861h0c.316.12.633.24.946.337s.621.208.914.293.533.164.794.228c.076.02.152.032.217.056.24.064.468.12.7.164S179.26,473.355,179.5,473.4Z" transform="translate(-85.083 -412.715)"/><g transform="translate(75.019 19.607)"><path class="d" d="M302.132,264.457a1.092,1.092,0,0,1-1.089,1.089,2.635,2.635,0,0,1-1.59-.685,4.356,4.356,0,0,1-.9,1.464A1.093,1.093,0,0,1,297,264.779a3.932,3.932,0,0,0,.762-2.22,11.343,11.343,0,0,0-2.343-2.58,25.068,25.068,0,0,1-2.275,6.293A19.329,19.329,0,0,0,291.36,271c-.674-.164-1.37-.316-2.135-.469a21.827,21.827,0,0,1,1.95-5.195,17.609,17.609,0,0,0,2.255-7.4,7.72,7.72,0,0,0-1.482-3.807c-.249-.425-.521-.878-.773-1.338a4,4,0,0,1-3.189,1.871,1.089,1.089,0,1,1,0-2.179c1.154,0,2.05-1.959,2.231-2.5a5.813,5.813,0,0,1-.056-.761,43.2,43.2,0,0,1,2.143-9.886c.044-.141.076-.228.088-.261a1.089,1.089,0,0,1,2.123.293,1.253,1.253,0,0,1-.056.4c0,.032-.556,1.678-1.1,3.7,0,.032.032.056.044.088s1.022,4.79,4.638,5.7a6.925,6.925,0,0,1,4.006,3.9,1.081,1.081,0,0,1-.586,1.426,1.171,1.171,0,0,1-.424.088,1.086,1.086,0,0,1-1-.665c-.272-.621-1.242-2.307-2.527-2.635a8.076,8.076,0,0,1-5-4.1,13.858,13.858,0,0,0-.184,1.959,7.718,7.718,0,0,0,1.482,3.807,10.562,10.562,0,0,1,1.757,4.322,14.885,14.885,0,0,1,4.269,4.454c.665,1.318,1.218,1.558,1.306,1.578a1.1,1.1,0,0,1,.992,1.075Z" transform="translate(-260.702 -228.539)"/><path class="d" d="M204.086,253.7a8.132,8.132,0,0,1-2.512-1.857h0a7.153,7.153,0,0,1-.77-3.587,1.089,1.089,0,0,0-1.089-1.086h0a1.089,1.089,0,0,0-1.086,1.089,8.576,8.576,0,0,0,1.409,5.124,4.279,4.279,0,0,1,.77,2.5,1.089,1.089,0,1,0,2.179,0v-.293a2.74,2.74,0,0,0,1.1.293,1.1,1.1,0,0,0,1.1-1.089,1.08,1.08,0,0,0-1.081-1.086Z" transform="translate(-183.323 -236.298)"/><path class="d" d="M159.923,298.943a7.066,7.066,0,0,1-2.225-.319v-.018a43.712,43.712,0,0,0-1.063-6.457,1.089,1.089,0,0,0-2.111.527,37.778,37.778,0,0,1,1.057,7.359,5.789,5.789,0,0,0,2.779,5.329,1.07,1.07,0,0,0,.48.114,1.092,1.092,0,0,0,.507-2.05,3.441,3.441,0,0,1-1.517-2.492,10.532,10.532,0,0,0,2.1.193,1.089,1.089,0,1,0,0-2.178Z" transform="translate(-144.618 -274.999)"/><path class="d" d="M93.585,180.679c0,5.443-9.8,11.976-11.976,14.155a4.162,4.162,0,0,0-.676.9,3.173,3.173,0,0,0-.252.512A18.218,18.218,0,0,0,79.9,198.7c-.056.2-.12.392-.184.586a.616.616,0,0,1-.044.132h0a.365.365,0,0,1-.044.12,3.782,3.782,0,0,1-.228.521c-.076.132-.152.249-.228.369a2.7,2.7,0,0,1-.272.328,1.922,1.922,0,0,1-.328.261,2.133,2.133,0,0,1-.621.261,1.539,1.539,0,0,1-.24.044h0a3.013,3.013,0,0,1-.457.032s-2.179,2.179-2.179-10.887a17.988,17.988,0,0,1,4.354-13.206v.021a6.029,6.029,0,0,1,5.139-2.155h.02a1.265,1.265,0,0,1,.293.108c.753.369,1.482.685,2.179.946h0c.044,0,.076.032.12.044h.044a.082.082,0,0,0,.044.021c.878.337,1.731.621,2.483.878l.261.1.141.044c.108.044.217.076.316.12h0a9.427,9.427,0,0,1,1.871.878h0a3.285,3.285,0,0,1,.633.586h0c.076.108.164.217.24.337a.039.039,0,0,0,.021.032,2.139,2.139,0,0,1,.173.392,2.249,2.249,0,0,1,.108.469A2.787,2.787,0,0,1,93.585,180.679Z" transform="translate(-75.015 -173.068)"/><path class="d" d="M314.8,166.513a4.023,4.023,0,0,1-.184,1.306c-.032.076-.056.152-.088.228a2.033,2.033,0,0,1-.36.586c-.064.076-.132.141-.2.208a.718.718,0,0,1-.2.164,3.225,3.225,0,0,1-.717.392,1.166,1.166,0,0,1-.293.1,2.709,2.709,0,0,1-.316.088,6.822,6.822,0,0,1-.878.141,2.887,2.887,0,0,1-.316.021c-.108,0-.228.02-.348.02h-.457a5.1,5.1,0,0,1-3.452-1.133c-.076-.064-.141-.141-.208-.208a2.464,2.464,0,0,1-.293-.469c-.032-.076-.064-.164-.1-.252a.932.932,0,0,1-.056-.249,1.972,1.972,0,0,1-.021-.249,1.192,1.192,0,0,1,.02-.272,1.127,1.127,0,0,1,.056-.261c.02-.064.044-.12.064-.184a.522.522,0,0,1,.032-.076,1.258,1.258,0,0,1,.132-.272.081.081,0,0,0,.021-.044,2.058,2.058,0,0,1,.217-.316l.032-.032a.2.2,0,0,1,.064-.076,2.437,2.437,0,0,1,.228-.261,3.32,3.32,0,0,0,.293-.36l.032-.032s0-.021.032-.044l.064-.1a.584.584,0,0,0,.108-.173c.044-.064.076-.132.12-.208s.076-.152.12-.228a.954.954,0,0,0,.088-.185,4.992,4.992,0,0,0,.2-.565l.032-.064c.056-.217.1-.425.141-.641h0a1.606,1.606,0,0,1,.032-.217c.02-.152.032-.293.044-.445a1.679,1.679,0,0,0,.02-.228v-.3a.605.605,0,0,0,0-.141v-.184a10.133,10.133,0,0,0-.076-1.209c-.032-.293-.076-.533-.108-.729l-.032-.173-.032-.173-.02-.108C311.533,158.9,314.8,163.246,314.8,166.513Z" transform="translate(-277.718 -158.9)"/></g></g></svg>