<svg xmlns="http://www.w3.org/2000/svg" width="30.594" height="30.594" viewBox="0 0 30.594 30.594"><defs><style>.a{fill:#c9ccd3;}</style></defs><path class="a" d="M17.547,12.084a5.463,5.463,0,1,0,5.463,5.463A5.479,5.479,0,0,0,17.547,12.084ZM30.586,16.09A13.161,13.161,0,0,0,19,4.508V2.25H16.09V4.508A13.161,13.161,0,0,0,4.508,16.09H2.25V19H4.508A13.162,13.162,0,0,0,16.09,30.586v2.258H19V30.586A13.162,13.162,0,0,0,30.586,19h2.258V16.09ZM17.547,27.745a10.2,10.2,0,1,1,10.2-10.2A10.228,10.228,0,0,1,17.547,27.745Z" transform="translate(-2.25 -2.25)"/></svg>